<svg  viewBox="0 0 12 12" fill="none" xmlns="http://www.w3.org/2000/svg">
<g clip-path="url(#clip0_69_9)">
<path d="M8.36113 7.03008C8.2334 6.96445 7.59707 6.65273 7.47871 6.61055C7.36035 6.56602 7.27363 6.54492 7.18809 6.67617C7.10137 6.80625 6.85527 7.0957 6.77793 7.18359C6.70293 7.27031 6.62676 7.28086 6.49902 7.21641C5.73965 6.83672 5.2416 6.53906 4.74121 5.68008C4.60879 5.45156 4.87363 5.46797 5.1209 4.97461C5.16309 4.88789 5.14199 4.81406 5.10918 4.74844C5.07637 4.68281 4.81855 4.04766 4.71074 3.78867C4.60645 3.53672 4.49863 3.57187 4.42012 3.56719C4.34512 3.5625 4.25957 3.5625 4.17285 3.5625C4.08613 3.5625 3.94668 3.59531 3.82832 3.72305C3.70996 3.85313 3.37598 4.16602 3.37598 4.80117C3.37598 5.43633 3.83887 6.05156 3.90215 6.13828C3.96777 6.225 4.8127 7.52813 6.10996 8.08945C6.93027 8.44336 7.25137 8.47383 7.66152 8.41289C7.91113 8.37539 8.42559 8.10117 8.53223 7.79766C8.63887 7.49531 8.63887 7.23633 8.60723 7.18242C8.57559 7.125 8.48887 7.09219 8.36113 7.03008Z" fill="currentColor"/>
<path d="M10.8423 3.96562C10.5774 3.33633 10.1977 2.77148 9.71374 2.28633C9.22975 1.80234 8.66491 1.42148 8.03444 1.15781C7.38991 0.887109 6.70554 0.75 6.00007 0.75H5.97663C5.26647 0.753516 4.57858 0.894141 3.93171 1.1707C3.3071 1.43789 2.74694 1.81758 2.26764 2.30156C1.78835 2.78555 1.41218 3.34805 1.15202 3.975C0.882488 4.62422 0.746551 5.31445 0.750066 6.02461C0.753582 6.83789 0.948113 7.64531 1.31257 8.36719V10.1484C1.31257 10.4461 1.55397 10.6875 1.85163 10.6875H3.63405C4.35593 11.052 5.16335 11.2465 5.97663 11.25H6.00124C6.70319 11.25 7.38405 11.1141 8.02507 10.848C8.65202 10.5867 9.21569 10.2117 9.6985 9.73242C10.1825 9.25312 10.5633 8.69297 10.8294 8.06836C11.1059 7.42148 11.2466 6.73359 11.2501 6.02344C11.2536 5.30977 11.1153 4.61719 10.8423 3.96562ZM9.07155 9.09844C8.25007 9.91172 7.16022 10.3594 6.00007 10.3594H5.98014C5.2735 10.3559 4.57155 10.1801 3.95163 9.84961L3.85319 9.79688H2.20319V8.14688L2.15046 8.04844C1.81999 7.42852 1.64421 6.72656 1.64069 6.01992C1.636 4.85156 2.08249 3.75469 2.90163 2.92852C3.7196 2.10234 4.81296 1.64531 5.98132 1.64062H6.00124C6.58718 1.64062 7.15554 1.7543 7.69108 1.9793C8.21374 2.19844 8.68249 2.51367 9.08561 2.9168C9.48757 3.31875 9.80397 3.78867 10.0231 4.31133C10.2505 4.85273 10.3641 5.42695 10.3618 6.01992C10.3548 7.18711 9.89655 8.28047 9.07155 9.09844Z" fill="currentColor"/>
</g>
<defs>
<clipPath id="clip0_69_9">
<rect width="12" height="12" fill="white"/>
</clipPath>
</defs>
</svg>
